
<svg version="1.0" xmlns="http://www.w3.org/2000/svg"
 width="700.000000pt" height="356.000000pt" viewBox="0 0 700.000000 356.000000"
 preserveAspectRatio="xMidYMid meet">

<g transform="translate(0.000000,356.000000) scale(0.100000,-0.100000)"
fill="#000000" stroke="none">
<path d="M3017 1946 c-87 -32 -126 -98 -107 -181 12 -56 55 -90 142 -115 40
-12 85 -26 100 -32 67 -25 30 -78 -54 -78 -51 0 -97 18 -134 52 -21 19 -21 19
-53 -23 -36 -49 -34 -53 41 -95 48 -26 62 -29 149 -29 89 0 98 2 132 28 65 49
84 118 53 192 -18 43 -60 69 -151 96 -100 29 -115 36 -115 58 0 48 82 54 163
13 l57 -29 26 39 c21 30 24 41 14 52 -40 50 -191 79 -263 52z"/>
<path d="M1389 1888 c10 -35 42 -147 72 -250 l54 -188 56 0 57 0 42 170 c23
94 45 170 49 170 4 0 22 -62 40 -137 56 -229 43 -204 109 -201 l56 3 63 220
c34 121 65 232 68 248 l7 27 -61 0 c-69 0 -58 21 -106 -185 -16 -66 -30 -122
-32 -124 -7 -10 -16 15 -49 140 -19 74 -37 142 -40 152 -5 15 -15 17 -57 15
l-51 -3 -41 -152 c-22 -84 -43 -153 -47 -153 -3 0 -23 70 -43 155 l-37 155
-64 0 -63 0 18 -62z"/>
<path d="M2268 1703 l-95 -248 60 -3 c32 -2 61 -1 64 1 6 7 173 475 173 487 0
6 -24 10 -53 10 l-53 0 -96 -247z"/>
<path d="M3490 1700 l0 -250 161 0 160 0 -3 48 -3 47 -97 0 -98 0 0 202 0 203
-60 0 -60 0 0 -250z"/>
<path d="M4000 1700 l0 -250 60 0 60 0 0 147 0 148 108 -147 107 -147 58 -1
57 0 0 250 0 250 -55 0 -54 0 -3 -152 -3 -153 -113 153 -114 152 -54 0 -54 0
0 -250z"/>
<path d="M4745 1805 l95 -146 0 -104 0 -105 55 0 55 0 0 106 0 106 90 138 c50
76 90 141 90 145 0 3 -28 5 -62 3 l-63 -3 -53 -88 c-30 -48 -57 -85 -61 -82
-4 2 -31 43 -60 90 l-53 85 -64 0 -64 0 95 -145z"/>
<path d="M2310 1285 c-7 -9 -11 -17 -9 -20 3 -2 10 5 17 15 14 24 10 26 -8 5z"/>
<path d="M2883 1250 c0 -30 2 -43 4 -27 2 15 2 39 0 55 -2 15 -4 2 -4 -28z"/>
<path d="M3224 1286 c-3 -8 -4 -31 -2 -52 3 -36 4 -35 8 14 5 53 4 63 -6 38z"/>
<path d="M3601 1258 c0 -26 3 -49 7 -52 4 -2 6 12 4 32 -6 62 -10 69 -11 20z"/>
<path d="M3833 1250 c0 -30 2 -43 4 -27 2 15 2 39 0 55 -2 15 -4 2 -4 -28z"/>
<path d="M4082 1280 c0 -14 2 -19 5 -12 2 6 2 18 0 25 -3 6 -5 1 -5 -13z"/>
<path d="M2469 1232 c5 -34 6 -35 9 -8 2 16 0 32 -5 37 -5 5 -7 -7 -4 -29z"/>
<path d="M2787 1263 c-9 -9 -9 -51 1 -56 4 -3 7 10 7 29 0 19 0 34 -1 34 0 0
-4 -3 -7 -7z"/>
<path d="M2970 1235 c0 -19 2 -35 4 -35 2 0 6 16 8 35 2 19 0 35 -4 35 -4 0
-8 -16 -8 -35z"/>
<path d="M3077 1263 c-9 -9 -9 -41 1 -46 4 -3 7 8 7 24 0 16 0 29 -1 29 0 0
-4 -3 -7 -7z"/>
<path d="M3133 1230 c0 -25 2 -35 4 -22 2 12 2 32 0 45 -2 12 -4 2 -4 -23z"/>
<path d="M3393 1235 c0 -22 2 -30 4 -17 2 12 2 30 0 40 -3 9 -5 -1 -4 -23z"/>
<path d="M3672 1245 c0 -16 2 -22 5 -12 2 9 2 23 0 30 -3 6 -5 -1 -5 -18z"/>
<path d="M3733 1235 c0 -22 2 -30 4 -17 2 12 2 30 0 40 -3 9 -5 -1 -4 -23z"/>
<path d="M3032 1230 c0 -19 2 -27 5 -17 2 9 2 25 0 35 -3 9 -5 1 -5 -18z"/>
<path d="M2301 1239 c-1 -9 7 -23 17 -30 15 -12 16 -12 6 1 -6 8 -14 22 -17
30 -5 13 -6 12 -6 -1z"/>
<path d="M2512 1225 c0 -16 2 -22 5 -12 2 9 2 23 0 30 -3 6 -5 -1 -5 -18z"/>
<path d="M2681 1234 c0 -11 3 -14 6 -6 3 7 2 16 -1 19 -3 4 -6 -2 -5 -13z"/>
<path d="M3351 1234 c0 -11 3 -14 6 -6 3 7 2 16 -1 19 -3 4 -6 -2 -5 -13z"/>
<path d="M3771 1234 c0 -11 3 -14 6 -6 3 7 2 16 -1 19 -3 4 -6 -2 -5 -13z"/>
<path d="M3871 1234 c0 -11 3 -14 6 -6 3 7 2 16 -1 19 -3 4 -6 -2 -5 -13z"/>
<path d="M4080 1231 c0 -11 4 -22 9 -25 4 -3 6 6 3 19 -5 30 -12 33 -12 6z"/>
<path d="M2414 1229 c-3 -6 -2 -15 3 -20 5 -5 9 -1 9 11 0 23 -2 24 -12 9z"/>
<path d="M2736 1213 c-6 -14 -5 -15 5 -6 7 7 10 15 7 18 -3 3 -9 -2 -12 -12z"/>
<path d="M2836 1213 c-6 -14 -5 -15 5 -6 7 7 10 15 7 18 -3 3 -9 -2 -12 -12z"/>
</g>
</svg>
